<?xml version="1.0" encoding="UTF-8"?><svg width="500" height="500" id="a" xmlns="http://www.w3.org/2000/svg" viewBox="0 0 2160 2160"><defs><style>.d{fill:#f4a82c;}.e{fill:none;stroke:#f4a82c;stroke-miterlimit:10;stroke-width:50px;}</style></defs><g id="b"><g><path class="d" d="M885.23,1631.02l-50.48-110.83c126.2-20.85,152.53-41.7,152.53-122.9v-14.27c-27.43,26.34-60.35,46.09-107.54,46.09-97.66,0-155.82-93.27-155.82-295.19s57.06-302.87,160.21-302.87c43.89,0,76.81,20.85,103.15,43.89v-31.82h168.99v515.75c0,185.45-81.2,244.71-271.05,272.14Zm102.05-636.46c-13.17-12.07-27.43-20.85-49.38-20.85-30.73,0-46.09,19.75-46.09,155.82s15.36,159.12,47.19,159.12c19.75,0,34.02-7.68,48.28-19.75v-274.34Z"/><path class="d" d="M1334.04,789.35c-55.96,0-95.47-35.12-95.47-87.79s39.5-85.59,95.47-85.59,95.47,35.12,95.47,85.59-38.41,87.79-95.47,87.79Zm-84.5,629.88V843.12h168.99v576.11h-168.99Z"/></g></g><g id="c"><path class="e" d="M1712.37,245.43c251.95,191.21,414.67,493.89,414.67,834.57,0,623.56-468.77,1047.04-1047.04,1047.04S32.96,1658.26,32.96,1080,501.74,32.96,1080,32.96"/></g></svg>